# xmcd
#
# Track frame offsets:
#	150
#	16343
#	42353
#	59680
#	76735
#	97840
#	112395
#	127408
#	142148
#	158048
#	176213
#	196235
#	212894
#	227953
#	242114
#	259493
#	275384
#	290593
#	304553
#	318914
#	333114
#
# Disc length: 4653 seconds
#
# Revision: 1
# Processed by: cddbd v1.5.2PL0 Copyright (c) Steve Scherf et al.
# Submitted via: EZCDAudioConverter 5.5.1.1
#
DISCID=42122b15
DTITLE=The Nitty Gritty Dirt Band - Fishin' In The Dark: The Best Of The Nitty
DTITLE=Gritty Dirt Band
DYEAR=2017
DGENRE=Country
TTITLE0=Mr. Bojangles
TTITLE1=Rippin' Waters
TTITLE2=An American Dream
TTITLE3=Make A Little Magic
TTITLE4=Fire In The Sky
TTITLE5=Dance Little Jean
TTITLE6=Long Hard Road (The Sharecropper's Dream)
TTITLE7=High Horse
TTITLE8=Modern Day Romance
TTITLE9=Partners, Brothers and Friends
TTITLE10=Stand A Little Rain
TTITLE11=Cadillac Ranch
TTITLE12=I've Been Lookin'
TTITLE13=Oh What A Love
TTITLE14=Workin' Man (Nowhere To Go)
TTITLE15=I Love Only You
TTITLE16=Fishin' In The Dark
TTITLE17=Baby's Got A Hold On Me
TTITLE18=Face On The Cutting Room Floor
TTITLE19=Down That Road Tonight
TTITLE20=Home Again In My Heart
EXTD=
EXTT0=
EXTT1=
EXTT2=
EXTT3=
EXTT4=
EXTT5=
EXTT6=
EXTT7=
EXTT8=
EXTT9=
EXTT10=
EXTT11=
EXTT12=
EXTT13=
EXTT14=
EXTT15=
EXTT16=
EXTT17=
EXTT18=
EXTT19=
EXTT20=
PLAYORDER=
